<?xml version="1.0" encoding="UTF-8" standalone="no"?>
<svg width="574px" height="533px" viewBox="0 0 574 533" version="1.1" xmlns="http://www.w3.org/2000/svg" xmlns:xlink="http://www.w3.org/1999/xlink" xmlns:sketch="http://www.bohemiancoding.com/sketch/ns">
    <!-- Generator: Sketch 3.2 (9961) - http://www.bohemiancoding.com/sketch -->
    <title>Artboard 1</title>
    <desc>Created with Sketch.</desc>
    <defs></defs>
    <g id="Page-1" stroke="none" stroke-width="1" fill="none" fill-rule="evenodd" sketch:type="MSPage">
        <g id="Artboard-1" sketch:type="MSArtboardGroup" transform="translate(-108.000000, -84.000000)" fill="#FEFEFE">
            <path d="M516.72729,314.3332 L516.72729,286.1271 L505.47369,286.1271 L505.47369,307.2634 L495.66209,307.2634 L495.66209,286.1271 L483.66949,286.1271 L483.66949,314.2632 L473.82279,314.2632 L473.82279,277.1974 C464.63809,278.9464 455.16039,279.8654 445.46579,279.8654 C415.42279,279.8654 387.43469,271.0737 363.92749,255.9282 C391.28459,294.0369 435.97209,318.864 486.46439,318.864 C499.15689,318.864 511.47949,317.2901 523.25209,314.3332 L516.72729,314.3332 Z M505.47269,128.9355 L505.47269,114.165 L516.69229,114.165 L516.69229,129.0415 C516.55029,133.2143 514.74539,135.3593 511.27649,135.4763 C507.47769,135.3593 505.54269,133.1783 505.47269,128.9355 L505.47269,128.9355 Z M511.38149,145.0769 C521.50919,145.0769 526.57399,138.9231 526.57399,126.6146 L526.57399,103.6143 L473.82279,103.6143 L473.82279,114.165 L495.62609,114.165 L495.62609,123.8007 L473.82279,136.4262 L473.82279,148.5238 L496.82199,135.3713 C498.90889,141.842 503.76179,145.0769 511.38149,145.0769 L511.38149,145.0769 Z M493.51609,430.3922 L526.57399,397.3344 L526.57399,393.8175 L473.82279,393.8175 L473.82279,404.3671 L506.52869,404.3671 L473.82279,437.073 L473.82279,440.9419 L526.57399,440.9419 L526.57399,430.3922 L493.51609,430.3922 Z M516.72729,87.5929 L526.57399,87.5929 L526.53899,48.8382 L473.82279,48.8382 L473.82279,87.5229 L483.66949,87.5229 L483.66949,59.3888 L495.66209,59.3888 L495.66209,80.5241 L505.47269,80.5241 L505.47269,59.3888 L516.72729,59.3888 L516.72729,87.5929 Z M493.51609,366.9284 L526.57399,333.8705 L526.57399,330.3536 L473.82279,330.3536 L473.82279,340.9033 L506.52869,340.9033 L473.82279,373.6092 L473.82279,377.478 L526.57399,377.478 L526.57399,366.9284 L493.51609,366.9284 Z M484.33739,234.3749 L484.33739,224.5982 L516.02339,224.5982 L516.02339,234.3749 C516.02339,243.7296 510.74849,248.4184 500.19889,248.4414 C489.64829,248.4184 484.36039,243.7296 484.33739,234.3749 L484.33739,234.3749 Z M621.96279,275.4045 C662.80339,331.1586 684.79059,369.5283 677.46389,375.9481 C669.43209,382.9848 627.99259,350.092 570.31249,293.3899 C582.54209,285.1842 593.50969,275.2425 602.84939,263.9069 C608.21619,269.0637 614.72899,273.0266 621.96279,275.4045 L621.96279,275.4045 Z M513.16749,256.9381 C514.62739,258.4781 516.08839,260.019 517.54329,261.547 C506.24069,267.7128 494.05309,272.4566 481.23149,275.5775 L526.53999,275.5775 L526.57399,313.4502 C537.00559,310.5733 546.98729,306.6134 556.38299,301.6836 C663.51729,410.5129 748.67649,480.9785 761.94999,468.8389 C774.11159,457.7193 722.60629,380.3249 637.89719,277.9154 C665.55129,277.7854 687.93049,255.3332 687.93049,227.6481 C687.93049,208.2388 676.92389,191.4094 660.81739,183.0316 C664.91129,190.3084 667.25819,198.6991 667.25819,207.6428 C667.25819,235.4079 644.74999,257.9151 616.98489,257.9151 C609.18019,257.9151 601.80739,256.1082 595.21769,252.9333 C590.88179,245.5045 588.38489,236.8708 588.38489,227.6481 C588.38489,200.4681 609.95819,178.3388 636.91529,177.4198 C637.10319,174.3419 637.20919,171.243 637.20919,168.1192 C637.20919,114.908 609.63719,68.1395 568.00259,41.3125 C585.75399,66.0406 596.21059,96.3586 596.21059,129.1205 C596.21059,180.7077 570.29249,226.2332 530.77389,253.4103 C528.63689,251.1943 526.47799,248.9444 524.31209,246.6835 C525.82899,243.2796 526.60899,239.1907 526.60899,234.3749 L526.60899,214.0476 L493.78509,214.0476 C488.83629,208.7368 483.87449,203.38 478.88059,197.9551 L483.66949,197.9551 L483.66949,169.8211 L495.66209,169.8211 L495.66209,190.9574 L505.47269,190.9574 L505.47269,169.8211 L516.72729,169.8211 L516.72729,198.0251 L526.57399,198.0251 L526.53899,159.2715 L473.82279,159.2715 L473.82279,192.4503 C464.29009,182.0417 454.60439,171.322 444.59879,160.0424 C354.55279,59.8728 337.55139,40.8735 262.88795,-56.7892 C255.31221,-66.6989 237.22283,-92.372 232,-102.4307 C255.7222,-42.6237 369.71829,101.3714 467.40999,207.7998 C469.66989,210.2627 471.76489,212.5276 473.82279,214.7456 L473.82279,234.3749 C473.82279,250.7863 482.61449,258.9921 500.19889,258.9921 C505.25669,258.9921 509.56259,258.2921 513.16749,256.9381 L513.16749,256.9381 Z M473.82279,7.6006 L473.82279,18.1512 L516.72729,18.1512 L516.72729,35.7347 L526.57399,35.7347 L526.57399,-9.9828 L516.72729,-9.9828 L516.72729,7.6006 L473.82279,7.6006 Z M483.66949,-43.2377 C484.13839,-48.8645 485.77939,-52.8503 488.59229,-55.1943 L481.55949,-62.228 C479.21459,-59.8831 477.33869,-57.0702 475.93269,-53.7873 C474.52579,-50.5054 473.82279,-46.4146 473.82279,-41.5137 C473.82279,-36.3569 475.34569,-31.8381 478.39459,-27.9572 C481.44149,-24.0773 485.07639,-22.1364 489.29629,-22.1364 C494.68809,-22.1364 498.61599,-23.9543 501.07789,-27.5882 C503.53979,-31.2221 505.00369,-35.2659 505.47269,-39.7208 C506.17669,-43.9406 507.23169,-46.6366 508.63859,-47.8095 C510.04459,-48.9815 511.74549,-48.9815 513.73739,-47.8095 C515.73039,-46.6366 516.72729,-43.9406 516.72729,-39.7208 C516.72729,-35.5009 515.32039,-32.218 512.50649,-29.8741 L519.54019,-22.8404 C521.88419,-25.1853 523.64309,-27.7052 524.81509,-30.4011 C525.98799,-33.098 526.57399,-36.8959 526.57399,-41.7957 C526.57399,-46.0156 525.16099,-50.1244 522.33609,-54.1213 C519.51019,-58.1192 515.76539,-60.1181 511.10049,-60.1181 C505.94169,-60.1181 502.30779,-58.3592 500.19889,-54.8423 C498.08799,-51.3254 496.79799,-47.4575 496.32999,-43.2377 C495.86099,-38.5488 494.62909,-35.6239 492.63719,-34.463 C490.64419,-33.302 488.65129,-33.302 486.65939,-34.463 C484.66539,-35.6239 483.66949,-38.5488 483.66949,-43.2377 L483.66949,-43.2377 Z" id="LOGOapplat.ai" sketch:type="MSShapeGroup" transform="translate(529.637800, 318.500000) rotate(-90.000000) translate(-529.637800, -318.500000) "></path>
        </g>
    </g>
</svg>